<svg xmlns="http://www.w3.org/2000/svg" viewBox="0 0 566.92 566.93"><defs><style>.cls-1{fill:#1a1a1a;}.cls-2{fill:#ededed;}</style></defs><g id="Layer_2" data-name="Layer 2"><g id="Layer_1-2" data-name="Layer 1"><path class="cls-1" d="M283.46,566.93C127.16,566.93,0,439.77,0,283.46S127.16,0,283.46,0,566.92,127.16,566.92,283.46,439.77,566.93,283.46,566.93Zm0-529.92C147.57,37,37,147.57,37,283.46S147.57,529.92,283.46,529.92,529.91,419.35,529.91,283.46,419.36,37,283.46,37Z"/><path class="cls-2" d="M322.46,377.31,292.38,275l-6.62-22.65c-.45,1.2-.92,2.38-1.4,3.56-4.14,10.1-8.78,19.87-13.78,29.57-1.85,3.58-3.71,7.16-5.51,10.77-.89,1.78-1.75,3.56-2.59,5.36l11.21,38.35,20.64,70.32h37.75Z"/><path class="cls-1" d="M278.88,178.92l-6.95,26.19-17.85,67.73-28,105.49L172,178.92H129.43l67.09,231.33h56.91l20.26-70.32,18.69-65,27.67-96.05Z"/><polygon class="cls-1" points="380.64 178.9 312.76 410.24 350.53 410.24 418.42 178.9 380.64 178.9"/><rect class="cls-1" x="400.06" y="372.78" width="37.46" height="37.46"/></g></g></svg>