<svg width="54" height="54" viewBox="0 0 54 54" fill="none" xmlns="http://www.w3.org/2000/svg">
<path d="M54 27C54 41.9117 41.9117 54 27 54C12.0883 54 0 41.9117 0 27C0 12.0883 12.0883 0 27 0C41.9117 0 54 12.0883 54 27Z" fill="black"/>
<path d="M11.2716 16.52L13.4796 32.648H13.7356L18.5676 17.48L21.1276 18.248L24.4556 32.776H24.7116L28.3916 16.52L31.2716 17.288L25.6076 37.8L22.7276 38.28L17.8316 27.496L14.1836 37.8L10.6636 38.28L3.94362 17.384L11.2716 16.52ZM43.1069 38.248C41.4642 38.248 39.9389 38.056 38.5309 37.672C37.1442 37.288 36.0775 36.7867 35.3309 36.168C34.9682 34.4613 34.7869 32.6907 34.7869 30.856C34.7869 27.72 35.3309 24.776 36.4189 22.024C37.5069 19.2507 39.1815 17.0427 41.4429 15.4L47.6189 19.304C44.6749 21.1813 42.3389 23.5707 40.6109 26.472C38.8829 29.3733 38.0189 32.296 38.0189 35.24C39.1922 35.4747 40.3442 35.592 41.4749 35.592C42.6269 35.592 43.6615 35.4853 44.5789 35.272L43.9389 28.264L50.0189 27.88L48.0989 39.144L44.9629 39.4L44.8349 38.152C44.2589 38.216 43.6829 38.248 43.1069 38.248Z" fill="white"/>
</svg>
