<svg width="81" height="21" viewBox="0 0 81 21" fill="none" xmlns="http://www.w3.org/2000/svg">
<path d="M10.5536 6.12L3.76163 10.536L10.8896 13.848L9.49763 16.128L0.785625 11.28V9.192L9.97763 4.656L10.5536 6.12ZM19.1529 2.04L20.8089 14.136H21.0009L24.6249 2.76L26.5449 3.336L29.0409 14.232H29.2329L31.9929 2.04L34.1529 2.616L29.9049 18L27.7449 18.36L24.0729 10.272L21.3369 18L18.6969 18.36L13.6569 2.688L19.1529 2.04ZM43.0294 18.336C41.7974 18.336 40.6534 18.192 39.5974 17.904C38.5574 17.616 37.7574 17.24 37.1974 16.776C36.9254 15.496 36.7894 14.168 36.7894 12.792C36.7894 10.44 37.1974 8.232 38.0134 6.168C38.8294 4.088 40.0854 2.432 41.7814 1.2L46.4134 4.128C44.2054 5.536 42.4534 7.328 41.1574 9.504C39.8614 11.68 39.2134 13.872 39.2134 16.08C40.0934 16.256 40.9574 16.344 41.8054 16.344C42.6694 16.344 43.4454 16.264 44.1334 16.104L43.6534 10.848L48.2134 10.56L46.7734 19.008L44.4214 19.2L44.3254 18.264C43.8934 18.312 43.4614 18.336 43.0294 18.336ZM58.0528 19.632L63.4288 0.263999L66.1168 1.008L59.7328 20.184L58.0528 19.632ZM70.4391 14.664L77.2311 10.248L70.1031 6.936L71.4951 4.656L80.2071 9.504V11.592L71.0151 16.128L70.4391 14.664Z" fill="#FFFFFF"/>
<path d="M10.5536 6.12L10.8262 6.53919L11.1683 6.31672L11.0189 5.93694L10.5536 6.12ZM3.76163 10.536L3.48908 10.1168L2.73211 10.609L3.55094 10.9894L3.76163 10.536ZM10.8896 13.848L11.3164 14.1085L11.6082 13.6305L11.1003 13.3946L10.8896 13.848ZM9.49763 16.128L9.2545 16.5649L9.67413 16.7984L9.92438 16.3885L9.49763 16.128ZM0.785625 11.28H0.285625V11.574L0.542497 11.7169L0.785625 11.28ZM0.785625 9.192L0.564363 8.74362L0.285625 8.88117V9.192H0.785625ZM9.97763 4.656L10.4429 4.47294L10.2439 3.96705L9.75636 4.20762L9.97763 4.656ZM10.2811 5.70081L3.48908 10.1168L4.03417 10.9552L10.8262 6.53919L10.2811 5.70081ZM3.55094 10.9894L10.6789 14.3014L11.1003 13.3946L3.97232 10.0826L3.55094 10.9894ZM10.4629 13.5875L9.07087 15.8675L9.92438 16.3885L11.3164 14.1085L10.4629 13.5875ZM9.74075 15.6911L1.02875 10.8431L0.542497 11.7169L9.2545 16.5649L9.74075 15.6911ZM1.28563 11.28V9.192H0.285625V11.28H1.28563ZM1.00689 9.64038L10.1989 5.10438L9.75636 4.20762L0.564363 8.74362L1.00689 9.64038ZM9.51234 4.83906L10.0883 6.30306L11.0189 5.93694L10.4429 4.47294L9.51234 4.83906ZM19.1529 2.04L19.6483 1.97218L19.5818 1.48598L19.0944 1.54344L19.1529 2.04ZM20.8089 14.136L20.3136 14.2038L20.3727 14.636H20.8089V14.136ZM21.0009 14.136V14.636H21.3664L21.4773 14.2878L21.0009 14.136ZM24.6249 2.76L24.7686 2.28109L24.2977 2.13983L24.1485 2.60823L24.6249 2.76ZM26.5449 3.336L27.0323 3.22435L26.9673 2.9407L26.6886 2.85709L26.5449 3.336ZM29.0409 14.232L28.5536 14.3436L28.6425 14.732H29.0409V14.232ZM29.2329 14.232V14.732H29.6324L29.7206 14.3424L29.2329 14.232ZM31.9929 2.04L32.1218 1.55688L31.6199 1.42306L31.5053 1.9296L31.9929 2.04ZM34.1529 2.616L34.6349 2.74908L34.7692 2.26285L34.2818 2.13288L34.1529 2.616ZM29.9049 18L29.9871 18.4932L30.302 18.4407L30.3869 18.1331L29.9049 18ZM27.7449 18.36L27.2897 18.5667L27.4484 18.9163L27.8271 18.8532L27.7449 18.36ZM24.0729 10.272L24.5282 10.0653L24.0155 8.93602L23.6016 10.1051L24.0729 10.272ZM21.3369 18L21.4045 18.4954L21.7065 18.4542L21.8083 18.1669L21.3369 18ZM18.6969 18.36L18.2209 18.5131L18.3493 18.912L18.7645 18.8554L18.6969 18.36ZM13.6569 2.688L13.5984 2.19144L12.9949 2.26259L13.1809 2.84108L13.6569 2.688ZM18.6576 2.10782L20.3136 14.2038L21.3043 14.0682L19.6483 1.97218L18.6576 2.10782ZM20.8089 14.636H21.0009V13.636H20.8089V14.636ZM21.4773 14.2878L25.1013 2.91177L24.1485 2.60823L20.5245 13.9842L21.4773 14.2878ZM24.4813 3.23891L26.4013 3.81491L26.6886 2.85709L24.7686 2.28109L24.4813 3.23891ZM26.0576 3.44765L28.5536 14.3436L29.5283 14.1204L27.0323 3.22435L26.0576 3.44765ZM29.0409 14.732H29.2329V13.732H29.0409V14.732ZM29.7206 14.3424L32.4806 2.1504L31.5053 1.9296L28.7453 14.1216L29.7206 14.3424ZM31.8641 2.52312L34.0241 3.09912L34.2818 2.13288L32.1218 1.55688L31.8641 2.52312ZM33.671 2.48291L29.423 17.8669L30.3869 18.1331L34.6349 2.74908L33.671 2.48291ZM29.8227 17.5068L27.6627 17.8668L27.8271 18.8532L29.9871 18.4932L29.8227 17.5068ZM28.2002 18.1533L24.5282 10.0653L23.6177 10.4787L27.2897 18.5667L28.2002 18.1533ZM23.6016 10.1051L20.8656 17.8331L21.8083 18.1669L24.5443 10.4389L23.6016 10.1051ZM21.2694 17.5046L18.6294 17.8646L18.7645 18.8554L21.4045 18.4954L21.2694 17.5046ZM19.1729 18.2069L14.1329 2.53492L13.1809 2.84108L18.2209 18.5131L19.1729 18.2069ZM13.7155 3.18456L19.2115 2.53656L19.0944 1.54344L13.5984 2.19144L13.7155 3.18456ZM39.5974 17.904L39.4639 18.3859L39.4658 18.3864L39.5974 17.904ZM37.1974 16.776L36.7083 16.8799L36.7444 17.05L36.8784 17.161L37.1974 16.776ZM38.0134 6.168L38.4784 6.35183L38.4788 6.3506L38.0134 6.168ZM41.7814 1.2L42.0485 0.777359L41.7619 0.59616L41.4875 0.795466L41.7814 1.2ZM46.4134 4.128L46.6822 4.54958L47.3462 4.12615L46.6805 3.70536L46.4134 4.128ZM41.1574 9.504L41.587 9.75985L41.587 9.75985L41.1574 9.504ZM39.2134 16.08H38.7134V16.4899L39.1153 16.5703L39.2134 16.08ZM44.1334 16.104L44.2466 16.591L44.6709 16.4923L44.6313 16.0585L44.1334 16.104ZM43.6534 10.848L43.6219 10.349L43.1087 10.3814L43.1554 10.8935L43.6534 10.848ZM48.2134 10.56L48.7063 10.644L48.8124 10.0212L48.1819 10.061L48.2134 10.56ZM46.7734 19.008L46.8141 19.5063L47.201 19.4748L47.2663 19.092L46.7734 19.008ZM44.4214 19.2L43.924 19.251L43.974 19.7382L44.4621 19.6983L44.4214 19.2ZM44.3254 18.264L44.8228 18.213L44.7713 17.7114L44.2702 17.7671L44.3254 18.264ZM43.0294 17.836C41.8363 17.836 40.7371 17.6966 39.7289 17.4216L39.4658 18.3864C40.5697 18.6874 41.7584 18.836 43.0294 18.836V17.836ZM39.7308 17.4221C38.7288 17.1446 38.0023 16.7936 37.5164 16.391L36.8784 17.161C37.5124 17.6864 38.386 18.0874 39.4639 18.3859L39.7308 17.4221ZM37.6865 16.6721C37.4221 15.4279 37.2894 14.1349 37.2894 12.792H36.2894C36.2894 14.2011 36.4287 15.5641 36.7083 16.8799L37.6865 16.6721ZM37.2894 12.792C37.2894 10.4991 37.6869 8.35387 38.4784 6.35183L37.5484 5.98417C36.7079 8.11013 36.2894 10.3809 36.2894 12.792H37.2894ZM38.4788 6.3506C39.2624 4.35332 40.4616 2.7767 42.0752 1.60453L41.4875 0.795466C39.7092 2.08729 38.3964 3.82268 37.5479 5.98539L38.4788 6.3506ZM41.5142 1.62264L46.1462 4.55064L46.6805 3.70536L42.0485 0.777359L41.5142 1.62264ZM46.1445 3.70642C43.8731 5.15489 42.0651 7.00281 40.7278 9.24815L41.587 9.75985C42.8417 7.65319 44.5377 5.91711 46.6822 4.54958L46.1445 3.70642ZM40.7278 9.24815C39.3926 11.49 38.7134 13.7693 38.7134 16.08H39.7134C39.7134 13.9747 40.3301 11.87 41.587 9.75985L40.7278 9.24815ZM39.1153 16.5703C40.0257 16.7524 40.9226 16.844 41.8054 16.844V15.844C40.9922 15.844 40.161 15.7596 39.3114 15.5897L39.1153 16.5703ZM41.8054 16.844C42.6994 16.844 43.5143 16.7613 44.2466 16.591L44.0201 15.617C43.3764 15.7667 42.6394 15.844 41.8054 15.844V16.844ZM44.6313 16.0585L44.1513 10.8025L43.1554 10.8935L43.6354 16.1495L44.6313 16.0585ZM43.6849 11.347L48.2449 11.059L48.1819 10.061L43.6219 10.349L43.6849 11.347ZM47.7205 10.476L46.2805 18.924L47.2663 19.092L48.7063 10.644L47.7205 10.476ZM46.7327 18.5097L44.3807 18.7017L44.4621 19.6983L46.8141 19.5063L46.7327 18.5097ZM44.9188 19.149L44.8228 18.213L43.828 18.315L43.924 19.251L44.9188 19.149ZM44.2702 17.7671C43.8564 17.813 43.4428 17.836 43.0294 17.836V18.836C43.4799 18.836 43.9304 18.811 44.3806 18.7609L44.2702 17.7671ZM58.0528 19.632L57.571 19.4983L57.4434 19.9581L57.8967 20.107L58.0528 19.632ZM63.4288 0.263999L63.5622 -0.217883L63.0807 -0.351163L62.947 0.13027L63.4288 0.263999ZM66.1168 1.008L66.5912 1.16594L66.7575 0.666527L66.2502 0.526118L66.1168 1.008ZM59.7328 20.184L59.5767 20.659L60.0499 20.8145L60.2072 20.3419L59.7328 20.184ZM58.5346 19.7657L63.9106 0.397729L62.947 0.13027L57.571 19.4983L58.5346 19.7657ZM63.2954 0.745881L65.9834 1.48988L66.2502 0.526118L63.5622 -0.217883L63.2954 0.745881ZM65.6424 0.850064L59.2584 20.0261L60.2072 20.3419L66.5912 1.16594L65.6424 0.850064ZM59.8889 19.709L58.2089 19.157L57.8967 20.107L59.5767 20.659L59.8889 19.709ZM70.4391 14.664L70.1665 14.2448L69.8244 14.4673L69.9738 14.8471L70.4391 14.664ZM77.2311 10.248L77.5036 10.6672L78.2606 10.175L77.4418 9.79456L77.2311 10.248ZM70.1031 6.936L69.6763 6.67546L69.3845 7.15345L69.8924 7.38944L70.1031 6.936ZM71.4951 4.656L71.7382 4.21909L71.3186 3.98557L71.0683 4.39546L71.4951 4.656ZM80.2071 9.504H80.7071V9.21003L80.4502 9.06709L80.2071 9.504ZM80.2071 11.592L80.4283 12.0404L80.7071 11.9028V11.592H80.2071ZM71.0151 16.128L70.5498 16.3111L70.7488 16.8169L71.2363 16.5764L71.0151 16.128ZM70.7116 15.0832L77.5036 10.6672L76.9585 9.82881L70.1665 14.2448L70.7116 15.0832ZM77.4418 9.79456L70.3138 6.48256L69.8924 7.38944L77.0204 10.7014L77.4418 9.79456ZM70.5298 7.19654L71.9218 4.91654L71.0683 4.39546L69.6763 6.67546L70.5298 7.19654ZM71.2519 5.09291L79.9639 9.94091L80.4502 9.06709L71.7382 4.21909L71.2519 5.09291ZM79.7071 9.504V11.592H80.7071V9.504H79.7071ZM79.9858 11.1436L70.7938 15.6796L71.2363 16.5764L80.4283 12.0404L79.9858 11.1436ZM71.4803 15.9449L70.9043 14.4809L69.9738 14.8471L70.5498 16.3111L71.4803 15.9449Z" fill="#FFFFFF"/>
</svg>
