<svg xmlns="http://www.w3.org/2000/svg" viewBox="0 0 708.66 218.04"><defs><style>.cls-1{fill:#1a1a1a;}.cls-2{fill:#ededed;}</style></defs><g id="Layer_2" data-name="Layer 2"><g id="Layer_1-2" data-name="Layer 1"><path class="cls-1" d="M109,218A109,109,0,1,1,218,109,109.15,109.15,0,0,1,109,218Zm0-203.8A94.78,94.78,0,1,0,203.8,109,94.88,94.88,0,0,0,109,14.24Z"/><path class="cls-2" d="M124,145.11l-11.57-39.36L106.26,84.6c-.74,2.28-1.62,4.53-2.29,6.77-1.76,6-3.17,11.33-3,17.56a4.16,4.16,0,0,1-1.18,3.21l5.44,18.59,7.94,27.05h14.52Z"/><path class="cls-1" d="M107.25,68.81l-2.67,10.07-6.86,26.05L87,145.5,66.15,68.81H49.78l25.8,89H97.47l7.79-27.05,7.19-25,10.64-36.94Z"/><polygon class="cls-1" points="146.39 68.8 120.28 157.77 134.81 157.77 160.92 68.8 146.39 68.8"/><rect class="cls-1" x="153.86" y="143.37" width="14.41" height="14.41"/><path class="cls-1" d="M373,183.23V152.46q0-10.77-5.32-15.64T351.17,132H332.58v9.61h19.87q4.74,0,7.18,2.18a7.85,7.85,0,0,1,2.44,6.15v6.41h-15.9q-18.72,0-18.72,19.87v2.57q0,9.48,4.42,13.39T346,196.05h11.41a9.38,9.38,0,0,0,7.82-3.85,10.14,10.14,0,0,0,3.4,2.82,8.09,8.09,0,0,0,3.65,1h7.05v-9a9.47,9.47,0,0,1-4.94-1A3.21,3.21,0,0,1,373,183.23ZM362.07,180a9.19,9.19,0,0,1-1,4.62q-1,1.79-4.87,1.79H344.76c-2.22,0-3.85-.51-4.87-1.54s-1.54-2.65-1.54-4.87v-6.41a7.46,7.46,0,0,1,7.69-7.69h16Z"/><path class="cls-1" d="M426.94,132h-4.62a17,17,0,0,0-9.61,2.56v-28.2h-10.9v89.74h25.13q11.16,0,16.48-4.88t5.31-15.64V152.46q0-10.9-5.25-15.71T426.94,132Zm10.9,46.15a7.8,7.8,0,0,1-2.44,6.15c-1.62,1.45-4,2.18-7.18,2.18H412.71V148.61a7,7,0,0,1,2.05-4.81q2.06-2.24,6.28-2.24h7.18c3.16,0,5.56.73,7.18,2.18a7.81,7.81,0,0,1,2.44,6.15Z"/><path class="cls-1" d="M490.79,135.41V132H471.17v9.61h9.36v44.87h-9.36v9.62H505.4v-9.62h-14V150.15a9.38,9.38,0,0,1,2.18-5.32,7.33,7.33,0,0,1,6.15-2.63h14.49V132H501A15.66,15.66,0,0,0,490.79,135.41Z"/><rect class="cls-1" x="544.64" y="106.31" width="12.18" height="11.54"/><polygon class="cls-1" points="556.17 131.95 536.69 131.95 536.69 141.56 545.28 141.56 545.28 196.04 575.15 196.04 575.15 186.43 556.17 186.43 556.17 131.95"/><path class="cls-1" d="M624.12,132h-6q-11,0-15.77,4.74t-4.74,15.77v23.07q0,10.91,5.26,15.71t16.53,4.81h19.11v-9.62H618.1q-4.74,0-7.18-2.18a7.83,7.83,0,0,1-2.43-6.15v-9.62h34.1V151.82q0-9.75-4.68-14.81T624.12,132ZM632,158.87H608.49v-9q0-4.09,1.85-6.21c1.25-1.41,3.4-2.12,6.48-2.12h7.43a7.46,7.46,0,0,1,7.7,7.69Z"/><path class="cls-1" d="M685.54,185.53a3.7,3.7,0,0,1-1-2.95V106.31H665v9.61h8.59v67.31q0,6.66,3.27,9.74a10.76,10.76,0,0,0,7.62,3.08h21.54v-9.62H689A5.24,5.24,0,0,1,685.54,185.53Z"/><polygon class="cls-1" points="349.5 25.84 338.08 25.84 323.47 81.09 308.47 25.84 307.19 25.84 296.68 25.84 295.78 25.84 281.17 81.09 266.17 25.84 254.38 25.84 272.96 89.94 288.73 89.94 301.95 44.02 315.27 89.94 331.03 89.94 349.5 25.84"/><polygon class="cls-1" points="379.88 25.84 360.4 25.84 360.4 35.45 368.99 35.45 368.99 89.94 398.86 89.94 398.86 80.32 379.88 80.32 379.88 25.84"/><rect class="cls-1" x="368.35" y="0.2" width="12.18" height="11.54"/><path class="cls-1" d="M430.27,79.43a3.73,3.73,0,0,1-1-3V.2H409.76V9.81h8.59V77.12q0,6.66,3.27,9.74a10.78,10.78,0,0,0,7.62,3.08h21.54V80.32h-17A5.3,5.3,0,0,1,430.27,79.43Z"/><path class="cls-1" d="M473.54,86.86a10.79,10.79,0,0,0,7.63,3.08h21.54V80.32h-17a5.29,5.29,0,0,1-3.46-.89,3.73,3.73,0,0,1-1-3V.2H461.68V9.81h8.59V77.12Q470.27,83.78,473.54,86.86Z"/><rect class="cls-1" x="521.56" y="0.2" width="12.18" height="11.54"/><polygon class="cls-1" points="552.07 89.94 552.07 80.32 533.09 80.32 533.09 25.84 513.61 25.84 513.61 35.45 522.2 35.45 522.2 89.94 552.07 89.94"/><path class="cls-1" d="M600.79,86.09a10.14,10.14,0,0,0,3.4,2.82,8,8,0,0,0,3.65,1h7V81A9.43,9.43,0,0,1,610,80a3.2,3.2,0,0,1-1.48-2.88V46.35q0-10.77-5.32-15.64t-16.47-4.87H568.1v9.61H588c3.16,0,5.56.73,7.18,2.18a7.86,7.86,0,0,1,2.43,6.16V50.2H581.69Q563,50.2,563,70.07v2.56q0,9.48,4.43,13.4t14.16,3.91H593A9.37,9.37,0,0,0,600.79,86.09Zm-3.21-12.18a9.3,9.3,0,0,1-1,4.62c-.68,1.2-2.31,1.79-4.87,1.79H580.28q-3.35,0-4.87-1.54t-1.54-4.87V67.5a7.46,7.46,0,0,1,7.69-7.69h16Z"/><path class="cls-1" d="M703.6,30.71q-5.07-4.87-15.45-4.87h-5.86c-6.66,0-11.66,1.52-15,4.53-3.38-3-8.38-4.53-15-4.53h-5.9a16.28,16.28,0,0,0-10.25,3.07V25.84H625.79v64.1h10.9V42.5a7,7,0,0,1,2-4.8q2.06-2.25,6.28-2.25h8.47a7.76,7.76,0,0,1,8.33,8.34v1.39c0,.39,0,.76,0,1.17V89.94h10.93V46.35c0-.41,0-.78,0-1.17V43.79A7.75,7.75,0,0,1,681,35.45h8.42a7.75,7.75,0,0,1,8.33,8.34V89.94h10.9V46.35Q708.66,35.58,703.6,30.71Z"/><path class="cls-1" d="M303.09,132H276.17q-11.16,0-16.48,4.87t-5.32,15.64v3.2A26.61,26.61,0,0,0,256.43,167a14.37,14.37,0,0,0,6.28,6.66V191.3h22.18q4.61,0,6.92,1.73a5.58,5.58,0,0,1,2.31,4.68v4.1a5.63,5.63,0,0,1-2.31,4.62c-1.54,1.2-3.85,1.79-6.92,1.79H256.94v9.62H283.6q11,0,16.22-4.3t5.19-13V199q0-8.72-5.19-13t-16.22-4.29h-10v-5.52h10.26q8.72,0,14-5.44t5.26-15.07V132H314v-10.9H303.09Zm-10.9,26.66a10,10,0,0,1-2.31,5.39,7.23,7.23,0,0,1-6,2.56h-9q-4.75,0-7.18-2.18a7.8,7.8,0,0,1-2.44-6.15v-8.34a7.81,7.81,0,0,1,2.44-6.15q2.43-2.18,7.18-2.18h17.3Z"/></g></g></svg>