<svg xmlns="http://www.w3.org/2000/svg" viewBox="0 0 566.92 566.93"><defs><style>.cls-1{fill:#1d1d1b;}</style></defs><g id="Layer_2" data-name="Layer 2"><g id="Layer_1-2" data-name="Layer 1"><path class="cls-1" d="M283.46,0C127.16,0,0,127.16,0,283.46S127.16,566.93,283.46,566.93,566.92,439.77,566.92,283.46,439.77,0,283.46,0Zm0,529.92C147.57,529.92,37,419.35,37,283.46S147.57,37,283.46,37,529.91,147.57,529.91,283.46,419.36,529.92,283.46,529.92Z"/><polygon class="cls-1" points="296.25 288.18 280.78 341.97 277.56 353.13 294.33 410.25 305.06 410.25 318.59 364.15 296.25 288.18"/><polygon class="cls-1" points="320.04 178.92 278.88 178.92 271.94 205.1 254.08 272.84 226.12 378.32 171.99 178.92 129.43 178.92 196.51 410.25 253.43 410.25 273.68 339.92 292.38 274.97 320.04 178.92"/><polygon class="cls-1" points="380.65 178.89 322.43 377.26 312.76 410.23 332.08 410.23 350.54 410.23 418.41 178.89 380.65 178.89"/><rect class="cls-1" x="400.06" y="372.78" width="37.46" height="37.46"/></g></g></svg>