<svg xmlns="http://www.w3.org/2000/svg" viewBox="0 0 708.66 311.62"><defs><style>.cls-1{fill:#fff;}</style></defs><g id="Layer_2" data-name="Layer 2"><g id="Layer_1-2" data-name="Layer 1"><path class="cls-1" d="M398.63,248.85q-4.12,3.78-4.12,12.12v2.48a20.44,20.44,0,0,0,1.59,8.74,11.1,11.1,0,0,0,4.86,5.16v13.71h17.18a8.89,8.89,0,0,1,5.36,1.34,4.27,4.27,0,0,1,1.79,3.63v3.17a4.32,4.32,0,0,1-1.79,3.58,8.6,8.6,0,0,1-5.36,1.39H396.49v7.45h20.66q8.53,0,12.56-3.33t4-10.08V297q0-6.75-4-10.08t-12.56-3.33H409.4v-4.27h8a14.35,14.35,0,0,0,10.82-4.22q4.08-4.22,4.08-11.67V245.08H411.39Q402.75,245.08,398.63,248.85Zm25.17,16.89a7.83,7.83,0,0,1-1.78,4.17,5.64,5.64,0,0,1-4.67,2h-7a8.08,8.08,0,0,1-5.57-1.69,6.07,6.07,0,0,1-1.88-4.76V259a6.1,6.1,0,0,1,1.88-4.77,8.13,8.13,0,0,1,5.57-1.68h13.4Z"/><path class="cls-1" d="M480.42,284.8V261q0-8.34-4.12-12.12t-12.77-3.77h-14.4v7.45h15.4a8.14,8.14,0,0,1,5.56,1.68A6.07,6.07,0,0,1,472,259v5H459.66q-14.51,0-14.5,15.39v2q0,7.35,3.43,10.37c2.28,2,5.94,3,11,3h8.84a7.26,7.26,0,0,0,6.06-3,7.91,7.91,0,0,0,2.63,2.19,6.24,6.24,0,0,0,2.83.79h5.46v-7a7.36,7.36,0,0,1-3.82-.74A2.5,2.5,0,0,1,480.42,284.8ZM472,282.32a7.1,7.1,0,0,1-.79,3.57c-.53.93-1.79,1.4-3.78,1.4h-8.83a4.3,4.3,0,0,1-5-5v-5a5.76,5.76,0,0,1,6-6H472Z"/><path class="cls-1" d="M516.27,245.08H512.7a13.17,13.17,0,0,0-7.45,2V225.21h-8.44v69.52h19.46q8.64,0,12.77-3.77c2.74-2.51,4.12-6.56,4.12-12.12V261q0-8.45-4.08-12.17T516.27,245.08Zm8.44,35.75a6.07,6.07,0,0,1-1.88,4.77,8.14,8.14,0,0,1-5.56,1.69h-12V258a5.44,5.44,0,0,1,1.59-3.73,6.3,6.3,0,0,1,4.86-1.73h5.57a8.14,8.14,0,0,1,5.56,1.68,6.07,6.07,0,0,1,1.88,4.77Z"/><path class="cls-1" d="M559.78,247.76v-2.68h-15.2v7.45h7.25v34.76h-7.25v7.44H571.1v-7.44H560.27V259.18a7.28,7.28,0,0,1,1.69-4.12,5.67,5.67,0,0,1,4.77-2H578v-7.94H567.72A12.11,12.11,0,0,0,559.78,247.76Z"/><polygon class="cls-1" points="604.47 245.08 589.38 245.08 589.38 252.53 596.03 252.53 596.03 294.73 619.17 294.73 619.17 287.29 604.47 287.29 604.47 245.08"/><rect class="cls-1" x="595.53" y="225.21" width="9.43" height="8.94"/><path class="cls-1" d="M651.15,245.08h-4.66q-8.55,0-12.22,3.67T630.6,261v17.87q0,8.45,4.07,12.17t12.81,3.72h14.8v-7.44H646.49a8.11,8.11,0,0,1-5.56-1.69,6.08,6.08,0,0,1-1.89-4.77v-7.45h26.42V260.47q0-7.55-3.63-11.47T651.15,245.08Zm6.06,20.85H639V259a7.12,7.12,0,0,1,1.44-4.82q1.44-1.64,5-1.63h5.76a5.75,5.75,0,0,1,6,6Z"/><path class="cls-1" d="M695.45,287.29a4.1,4.1,0,0,1-2.68-.7,2.88,2.88,0,0,1-.79-2.28v-59.1h-15.1v7.45h6.65V284.8c0,3.45.85,6,2.54,7.55a8.35,8.35,0,0,0,5.91,2.38h16.68v-7.44Z"/><polygon class="cls-1" points="53.53 287.88 41.91 245.08 40.92 245.08 32.77 245.08 32.08 245.08 20.75 287.88 9.14 245.08 0 245.08 14.4 294.73 26.61 294.73 36.86 259.16 47.17 294.73 59.39 294.73 73.69 245.08 64.85 245.08 53.53 287.88"/><polygon class="cls-1" points="97.23 245.08 82.14 245.08 82.14 252.53 88.79 252.53 88.79 294.73 111.93 294.73 111.93 287.29 97.23 287.29 97.23 245.08"/><rect class="cls-1" x="88.29" y="225.21" width="9.43" height="8.94"/><path class="cls-1" d="M136.26,286.59a2.88,2.88,0,0,1-.79-2.28v-59.1h-15.1v7.45H127V284.8c0,3.45.84,6,2.53,7.55a8.35,8.35,0,0,0,5.91,2.38h16.68v-7.44H139A4.11,4.11,0,0,1,136.26,286.59Z"/><path class="cls-1" d="M176.49,286.59a2.88,2.88,0,0,1-.8-2.28v-59.1H160.6v7.45h6.65V284.8c0,3.45.85,6,2.54,7.55a8.31,8.31,0,0,0,5.9,2.38h16.69v-7.44H179.17A4.08,4.08,0,0,1,176.49,286.59Z"/><polygon class="cls-1" points="215.92 245.08 200.83 245.08 200.83 252.53 207.48 252.53 207.48 294.73 230.62 294.73 230.62 287.29 215.92 287.29 215.92 245.08"/><rect class="cls-1" x="206.98" y="225.21" width="9.43" height="8.94"/><path class="cls-1" d="M274.32,284.8V261q0-8.34-4.12-12.12t-12.76-3.77H243v7.45h15.39a8.11,8.11,0,0,1,5.56,1.68,6.08,6.08,0,0,1,1.89,4.77v5H253.57q-14.5,0-14.5,15.39v2q0,7.35,3.42,10.37c2.29,2,5.94,3,11,3h8.84a7.24,7.24,0,0,0,6.05-3,8,8,0,0,0,2.64,2.19,6.17,6.17,0,0,0,2.82.79h5.47v-7a7.36,7.36,0,0,1-3.82-.74A2.48,2.48,0,0,1,274.32,284.8Zm-8.44-2.48a7.1,7.1,0,0,1-.79,3.57c-.53.93-1.79,1.4-3.78,1.4h-8.84a4.3,4.3,0,0,1-5-5v-5a5.76,5.76,0,0,1,6-6h12.41Z"/><path class="cls-1" d="M336,245.08H331.5c-5.16,0-9,1.18-11.65,3.51-2.62-2.33-6.5-3.51-11.66-3.51h-4.57a12.59,12.59,0,0,0-7.94,2.38v-2.38h-7.95v49.65h8.44V258a5.44,5.44,0,0,1,1.59-3.73,6.32,6.32,0,0,1,4.87-1.73h6.56a6,6,0,0,1,6.45,6.45v1.08c0,.3,0,.59,0,.91v33.76h8.47V261c0-.32,0-.61,0-.91V259a6,6,0,0,1,6.46-6.45H337a6,6,0,0,1,6.46,6.45v35.75h8.44V261q0-8.34-3.92-12.12T336,245.08Z"/><rect class="cls-1" x="432.25" y="236.64" width="8.44" height="8.44"/><path class="cls-1" d="M354.33,0a84.46,84.46,0,1,0,84.46,84.45A84.55,84.55,0,0,0,354.33,0Zm0,157.88a73.43,73.43,0,1,1,73.43-73.43A73.51,73.51,0,0,1,354.33,157.88Z"/><polygon class="cls-1" points="358.14 85.86 353.53 101.89 352.57 105.21 357.57 122.23 360.77 122.23 364.8 108.5 358.14 85.86"/><polygon class="cls-1" points="365.23 53.31 352.97 53.31 350.9 61.11 345.57 81.29 337.25 112.72 321.12 53.31 308.44 53.31 328.42 122.23 345.38 122.23 351.42 101.28 356.99 81.92 365.23 53.31"/><polygon class="cls-1" points="383.29 53.3 365.94 112.4 363.06 122.22 368.82 122.22 374.32 122.22 394.54 53.3 383.29 53.3"/><rect class="cls-1" x="389.07" y="111.07" width="11.16" height="11.16"/></g></g></svg>