<svg xmlns="http://www.w3.org/2000/svg" viewBox="0 0 708.11 131.05"><defs><style>.cls-1{fill:#1d1d1b;}</style></defs><g id="Layer_2" data-name="Layer 2"><g id="Layer_1-2" data-name="Layer 1"><path class="cls-1" d="M529.52,78.34V59.69q0-6.52-3.22-9.48c-2.16-2-5.48-3-10-3H505v5.83h12.05a6.36,6.36,0,0,1,4.35,1.32,4.77,4.77,0,0,1,1.48,3.73V62h-9.64q-11.34,0-11.35,12v1.55c0,3.84.9,6.55,2.68,8.12s4.66,2.37,8.59,2.37h6.92a5.67,5.67,0,0,0,4.74-2.33,6.06,6.06,0,0,0,2.06,1.71,4.8,4.8,0,0,0,2.21.62h4.28V80.68a5.73,5.73,0,0,1-3-.59A2,2,0,0,1,529.52,78.34Zm-6.6-1.94a5.55,5.55,0,0,1-.63,2.8c-.41.73-1.4,1.09-2.95,1.09h-6.92a3.36,3.36,0,0,1-3.88-3.89V72.52a4.52,4.52,0,0,1,4.66-4.67h9.72Z"/><path class="cls-1" d="M557.58,47.26h-2.8A10.26,10.26,0,0,0,549,48.82V31.72h-6.61V86.11h15.24q6.75,0,10-3t3.23-9.48v-14q0-6.6-3.19-9.51T557.58,47.26Zm6.6,28A4.76,4.76,0,0,1,562.71,79a6.37,6.37,0,0,1-4.36,1.32H549V57.36a4.3,4.3,0,0,1,1.24-2.91A4.91,4.91,0,0,1,554,53.09h4.35a6.37,6.37,0,0,1,4.36,1.32,4.76,4.76,0,0,1,1.47,3.73Z"/><path class="cls-1" d="M591.61,49.36v-2.1H579.72v5.83h5.68v27.2h-5.68v5.82h20.75V80.29H592v-22a5.65,5.65,0,0,1,1.32-3.23,4.45,4.45,0,0,1,3.73-1.59h8.78V47.26h-8A9.51,9.51,0,0,0,591.61,49.36Z"/><rect class="cls-1" x="619.59" y="31.72" width="7.38" height="6.99"/><polygon class="cls-1" points="626.59 47.26 614.77 47.26 614.77 53.09 619.98 53.09 619.98 86.11 638.09 86.11 638.09 80.29 626.59 80.29 626.59 47.26"/><path class="cls-1" d="M663.11,47.26h-3.65q-6.69,0-9.56,2.88T647,59.69v14q0,6.61,3.19,9.52c2.12,1.94,5.47,2.91,10,2.91h11.58V80.29H659.46A6.32,6.32,0,0,1,655.11,79a4.74,4.74,0,0,1-1.48-3.73V69.41H674.3V59.31q0-5.91-2.84-9C669.57,48.29,666.79,47.26,663.11,47.26Zm4.74,16.32H653.63V58.14a5.57,5.57,0,0,1,1.13-3.77c.75-.85,2.06-1.28,3.92-1.28h4.51a4.51,4.51,0,0,1,4.66,4.66Z"/><path class="cls-1" d="M697.77,80.29a3.17,3.17,0,0,1-2.1-.55,2.27,2.27,0,0,1-.62-1.78V31.72H683.24v5.83h5.21V78.34q0,4.05,2,5.91a6.54,6.54,0,0,0,4.62,1.86h13.06V80.29Z"/><polygon class="cls-1" points="195.51 80.75 186.42 47.26 185.64 47.26 179.27 47.26 178.73 47.26 169.87 80.75 160.78 47.26 153.63 47.26 164.9 86.11 174.45 86.11 182.47 58.28 190.54 86.11 200.09 86.11 211.29 47.26 204.37 47.26 195.51 80.75"/><rect class="cls-1" x="222.71" y="31.72" width="7.38" height="6.99"/><polygon class="cls-1" points="229.71 47.26 217.89 47.26 217.89 53.09 223.1 53.09 223.1 86.11 241.21 86.11 241.21 80.29 229.71 80.29 229.71 47.26"/><path class="cls-1" d="M260.25,79.74a2.24,2.24,0,0,1-.63-1.78V31.72H247.81v5.83H253V78.34q0,4.05,2,5.91a6.54,6.54,0,0,0,4.62,1.86h13.06V80.29H262.34A3.12,3.12,0,0,1,260.25,79.74Z"/><path class="cls-1" d="M291.72,79.74A2.24,2.24,0,0,1,291.1,78V31.72H279.29v5.83h5.2V78.34q0,4.05,2,5.91a6.54,6.54,0,0,0,4.62,1.86h13V80.29H293.82A3.13,3.13,0,0,1,291.72,79.74Z"/><rect class="cls-1" x="315.58" y="31.72" width="7.38" height="6.99"/><polygon class="cls-1" points="322.57 47.26 310.76 47.26 310.76 53.09 315.97 53.09 315.97 86.11 334.07 86.11 334.07 80.29 322.57 80.29 322.57 47.26"/><path class="cls-1" d="M368.27,78.34V59.69q0-6.52-3.23-9.48t-10-3H343.79v5.83h12a6.37,6.37,0,0,1,4.36,1.32,4.76,4.76,0,0,1,1.47,3.73V62H352q-11.36,0-11.35,12v1.55c0,3.84.9,6.55,2.68,8.12S348,86.11,352,86.11h6.92a5.65,5.65,0,0,0,4.73-2.33,6.15,6.15,0,0,0,2.06,1.71,4.83,4.83,0,0,0,2.22.62h4.27V80.68a5.72,5.72,0,0,1-3-.59A1.94,1.94,0,0,1,368.27,78.34Zm-6.61-1.94a5.66,5.66,0,0,1-.62,2.8c-.41.73-1.4,1.09-3,1.09h-6.92a4,4,0,0,1-2.95-.94,4,4,0,0,1-.93-2.95V72.52A4.52,4.52,0,0,1,352,67.85h9.71Z"/><path class="cls-1" d="M416.56,47.26H413c-4,0-7.07.92-9.12,2.75-2.05-1.83-5.08-2.75-9.12-2.75h-3.58A9.79,9.79,0,0,0,385,49.13V47.26h-6.22V86.11h6.6V57.36a4.27,4.27,0,0,1,1.25-2.91,4.91,4.91,0,0,1,3.81-1.36h5.12a4.69,4.69,0,0,1,5.06,5V59c0,.24,0,.47,0,.71V86.11h6.63V59.69c0-.24,0-.47,0-.71v-.84a4.69,4.69,0,0,1,5.05-5h5.1a4.69,4.69,0,0,1,5.05,5v28H429V59.69q0-6.52-3.07-9.48T416.56,47.26Z"/><path class="cls-1" d="M491.83,47.26H475.51q-6.76,0-10,3t-3.23,9.48v2a16,16,0,0,0,1.25,6.84,8.7,8.7,0,0,0,3.8,4V83.24H480.8A6.94,6.94,0,0,1,485,84.29a3.36,3.36,0,0,1,1.4,2.84v2.48a3.41,3.41,0,0,1-1.4,2.8,6.79,6.79,0,0,1-4.19,1.09H463.86v5.82H480q6.68,0,9.83-2.6T493,88.83V87.9q0-5.28-3.15-7.88T480,77.41H474V74.07h6.21a11.21,11.21,0,0,0,8.47-3.3q3.19-3.3,3.19-9.13V47.26h6.6v-6.6h-6.6Zm-6.61,16.17a6.09,6.09,0,0,1-1.39,3.26,4.43,4.43,0,0,1-3.66,1.55h-5.44a6.36,6.36,0,0,1-4.35-1.32,4.75,4.75,0,0,1-1.47-3.73v-5a4.76,4.76,0,0,1,1.47-3.73,6.36,6.36,0,0,1,4.35-1.32h10.49Z"/><path class="cls-1" d="M65.52,0A65.53,65.53,0,1,0,131,65.52,65.59,65.59,0,0,0,65.52,0Zm0,122.49a57,57,0,1,1,57-57A57,57,0,0,1,65.52,122.49Z"/><polygon class="cls-1" points="68.48 66.61 64.9 79.05 64.16 81.63 68.03 94.83 70.52 94.83 73.64 84.17 68.48 66.61"/><polygon class="cls-1" points="73.98 41.36 64.46 41.36 62.86 47.41 58.73 63.07 52.27 87.45 39.76 41.36 29.92 41.36 45.42 94.83 58.58 94.83 63.26 78.57 67.58 63.56 73.98 41.36"/><polygon class="cls-1" points="87.99 41.35 74.53 87.2 72.3 94.82 76.76 94.82 81.03 94.82 96.71 41.35 87.99 41.35"/><rect class="cls-1" x="92.47" y="86.17" width="8.66" height="8.66"/></g></g></svg>