<svg xmlns="http://www.w3.org/2000/svg" viewBox="0 0 506.63 566.93"><defs><style>.cls-1{fill:#fff;}</style></defs><g id="Layer_2" data-name="Layer 2"><g id="Layer_1-2" data-name="Layer 1"><path class="cls-1" d="M132.25,528.33V494q0-12-5.93-17.44T108,471.14H87.22v10.72h22.16q5.28,0,8,2.43a8.73,8.73,0,0,1,2.71,6.86v7.15H102.37q-20.87,0-20.87,22.16v2.86q0,10.59,4.93,14.94t15.8,4.36H115a10.43,10.43,0,0,0,8.72-4.29,11.46,11.46,0,0,0,3.79,3.15,9,9,0,0,0,4.08,1.14h7.86v-10q-3.85,0-5.51-1.08A3.58,3.58,0,0,1,132.25,528.33Zm-12.15-3.58A10.31,10.31,0,0,1,119,529.9c-.77,1.34-2.58,2-5.44,2H100.8q-3.72,0-5.43-1.71t-1.72-5.44V517.6a8.3,8.3,0,0,1,8.58-8.57H120.1Z"/><path class="cls-1" d="M192.45,471.14H187.3A18.88,18.88,0,0,0,176.58,474V442.55H164.43V542.62h28q12.44,0,18.37-5.43t5.93-17.44V494q0-12.15-5.86-17.51T192.45,471.14Zm12.15,51.47a8.73,8.73,0,0,1-2.71,6.86q-2.73,2.43-8,2.43h-17.3V489.72a7.83,7.83,0,0,1,2.29-5.36c1.52-1.66,3.86-2.5,7-2.5h8q5.28,0,8,2.43a8.73,8.73,0,0,1,2.71,6.86Z"/><path class="cls-1" d="M263.66,475v-3.86H241.78v10.72h10.44v50H241.78v10.72H280V531.9H264.37V491.44a10.35,10.35,0,0,1,2.43-5.93c1.52-2,3.81-2.93,6.86-2.93h16.16V471.14H275.09A17.47,17.47,0,0,0,263.66,475Z"/><polygon class="cls-1" points="336.57 471.14 314.85 471.14 314.85 481.86 324.42 481.86 324.42 542.62 357.74 542.62 357.74 531.9 336.57 531.9 336.57 471.14"/><rect class="cls-1" x="323.71" y="442.55" width="13.58" height="12.87"/><path class="cls-1" d="M412.35,471.14h-6.71q-12.3,0-17.59,5.29T382.76,494v25.74q0,12.15,5.86,17.51t18.44,5.36h21.31V531.9H405.64q-5.29,0-8-2.43a8.74,8.74,0,0,1-2.72-6.86V511.88h38V493.3q0-10.86-5.22-16.51T412.35,471.14Zm8.73,30H394.91v-10c0-3,.7-5.36,2.07-6.93s3.8-2.36,7.23-2.36h8.29a8.31,8.31,0,0,1,8.58,8.58Z"/><path class="cls-1" d="M480.84,530.9a4.18,4.18,0,0,1-1.14-3.29V442.55H458v10.72h9.58v75.06q0,7.42,3.64,10.86a12,12,0,0,0,8.51,3.43h24V531.9h-19A5.84,5.84,0,0,1,480.84,530.9Z"/><polygon class="cls-1" points="106.08 352.8 93.36 352.8 77.06 414.42 60.33 352.8 58.9 352.8 47.18 352.8 46.17 352.8 29.88 414.42 13.15 352.8 0 352.8 20.73 424.29 38.31 424.29 53.06 373.08 67.91 424.29 85.49 424.29 106.08 352.8"/><rect class="cls-1" x="127.1" y="324.21" width="13.58" height="12.87"/><polygon class="cls-1" points="139.97 352.8 118.24 352.8 118.24 363.53 127.82 363.53 127.82 424.29 161.13 424.29 161.13 413.57 139.97 413.57 139.97 352.8"/><path class="cls-1" d="M196.16,412.57a4.19,4.19,0,0,1-1.14-3.29V324.21H173.29v10.72h9.58V410q0,7.44,3.64,10.87a12.06,12.06,0,0,0,8.51,3.43h24V413.57H200A5.9,5.9,0,0,1,196.16,412.57Z"/><path class="cls-1" d="M244.42,420.86a12.06,12.06,0,0,0,8.51,3.43h24V413.57h-19a5.9,5.9,0,0,1-3.86-1,4.19,4.19,0,0,1-1.14-3.29V324.21H231.2v10.72h9.57V410Q240.77,417.43,244.42,420.86Z"/><rect class="cls-1" x="297.97" y="324.21" width="13.58" height="12.87"/><polygon class="cls-1" points="332 424.29 332 413.57 310.83 413.57 310.83 352.8 289.11 352.8 289.11 363.53 298.68 363.53 298.68 424.29 332 424.29"/><path class="cls-1" d="M386.33,420a11.45,11.45,0,0,0,3.79,3.14,8.9,8.9,0,0,0,4.07,1.15h7.87v-10q-3.85,0-5.51-1.07a3.58,3.58,0,0,1-1.64-3.22V375.68q0-12-5.93-17.44T370.6,352.8H349.87v10.73H372q5.3,0,8,2.43a8.73,8.73,0,0,1,2.71,6.86V380H365q-20.88,0-20.88,22.16V405q0,10.58,4.94,14.94t15.79,4.36h12.73A10.44,10.44,0,0,0,386.33,420Zm-3.58-13.58a10.41,10.41,0,0,1-1.13,5.14q-1.15,2-5.44,2H363.45c-2.48,0-4.29-.58-5.42-1.72s-1.72-3-1.72-5.43v-7.15a8.31,8.31,0,0,1,8.57-8.58h17.87Z"/><path class="cls-1" d="M501,358.24q-5.66-5.43-17.22-5.44h-6.54c-7.43,0-13,1.7-16.77,5.06-3.77-3.36-9.35-5.06-16.78-5.06h-6.58q-7,0-11.44,3.44V352.8H414.21v71.49h12.16v-52.9a7.81,7.81,0,0,1,2.29-5.36q2.28-2.5,7-2.5h9.44a8.63,8.63,0,0,1,9.29,9.29v1.55c0,.44,0,.86,0,1.31v48.61h12.19V375.68c0-.45,0-.87,0-1.31v-1.55a8.63,8.63,0,0,1,9.3-9.29h9.39a8.63,8.63,0,0,1,9.29,9.29v51.47h12.15V375.68Q506.63,363.67,501,358.24Z"/><path class="cls-1" d="M54.33,471.14h-30q-12.45,0-18.38,5.43T0,494v3.58q0,7.71,2.29,12.58a16,16,0,0,0,7,7.43v19.73H34c3.43,0,6,.65,7.72,1.93a6.2,6.2,0,0,1,2.57,5.22v4.58a6.24,6.24,0,0,1-2.57,5.14q-2.58,2-7.72,2H2.86v10.72H32.6q12.28,0,18.08-4.79t5.79-14.51v-1.72q0-9.72-5.79-14.51T32.6,526.61H21.45v-6.15H32.88q9.72,0,15.59-6.07t5.86-16.8V471.14H66.48V459H54.33ZM42.18,500.88a11.11,11.11,0,0,1-2.58,6,8.07,8.07,0,0,1-6.72,2.86h-10q-5.29,0-8-2.43a8.74,8.74,0,0,1-2.72-6.86v-9.3a8.74,8.74,0,0,1,2.72-6.86q2.72-2.43,8-2.43h19.3Z"/><path class="cls-1" d="M121.58,0A121.58,121.58,0,1,0,243.16,121.58,121.72,121.72,0,0,0,121.58,0Zm0,227.28a105.7,105.7,0,1,1,105.7-105.7A105.82,105.82,0,0,1,121.58,227.28Z"/><polygon class="cls-1" points="127.06 123.6 120.43 146.67 119.05 151.46 126.24 175.96 130.84 175.96 136.64 156.19 127.06 123.6"/><polygon class="cls-1" points="137.27 76.74 119.61 76.74 116.64 87.97 108.97 117.02 96.99 162.26 73.77 76.74 55.51 76.74 84.28 175.96 108.7 175.96 117.38 145.79 125.4 117.94 137.27 76.74"/><polygon class="cls-1" points="163.26 76.73 138.29 161.81 134.15 175.95 142.43 175.95 150.35 175.95 179.46 76.73 163.26 76.73"/><rect class="cls-1" x="171.59" y="159.89" width="16.07" height="16.07"/></g></g></svg>