<svg xmlns="http://www.w3.org/2000/svg" viewBox="0 0 708.66 132.16"><defs><style>.cls-1{fill:#1a1a1a;}.cls-2{fill:#ededed;}</style></defs><g id="Layer_2" data-name="Layer 2"><g id="Layer_1-2" data-name="Layer 1"><path class="cls-1" d="M66.08,132.16a66.08,66.08,0,1,1,66.08-66.08A66.15,66.15,0,0,1,66.08,132.16Zm0-123.53a57.45,57.45,0,1,0,57.45,57.45A57.51,57.51,0,0,0,66.08,8.63Z"/><path class="cls-2" d="M75.17,88l-7-23.86L66.66,59a29.34,29.34,0,0,1-6.43,8L63.8,79.24l4.81,16.4h8.8Z"/><path class="cls-1" d="M65,41.71l-1.62,6.1L59.23,63.6,52.71,88.19,40.1,41.71H30.17L45.81,95.64H59.08l4.72-16.4L68.16,64.1l6.45-22.39Z"/><polygon class="cls-1" points="88.73 41.7 72.91 95.63 81.72 95.63 97.54 41.7 88.73 41.7"/><rect class="cls-1" x="93.26" y="86.9" width="8.73" height="8.73"/><path class="cls-1" d="M530.08,78.9V60.25q0-6.53-3.23-9.48t-10-3H505.6v5.83h12A6.37,6.37,0,0,1,522,55a4.75,4.75,0,0,1,1.47,3.73v3.88h-9.63q-11.36,0-11.35,12v1.55c0,3.84.89,6.54,2.68,8.12s4.65,2.37,8.59,2.37h6.91a5.68,5.68,0,0,0,4.74-2.33,6.15,6.15,0,0,0,2.06,1.71,4.83,4.83,0,0,0,2.22.62H534V81.23a5.68,5.68,0,0,1-3-.58A1.94,1.94,0,0,1,530.08,78.9ZM523.47,77a5.66,5.66,0,0,1-.62,2.8c-.42.72-1.4,1.08-3,1.08H513A3.35,3.35,0,0,1,509.1,77V73.07a4.51,4.51,0,0,1,4.66-4.66h9.71Z"/><path class="cls-1" d="M558.13,47.82h-2.8a10.3,10.3,0,0,0-5.82,1.55V32.28H542.9V86.67h15.23q6.76,0,10-3t3.22-9.48v-14q0-6.6-3.19-9.52T558.13,47.82Zm6.61,28a4.72,4.72,0,0,1-1.48,3.73,6.34,6.34,0,0,1-4.35,1.32h-9.4V57.92A4.24,4.24,0,0,1,550.75,55a4.91,4.91,0,0,1,3.81-1.36h4.35A6.34,6.34,0,0,1,563.26,55a4.72,4.72,0,0,1,1.48,3.73Z"/><path class="cls-1" d="M592.17,49.92v-2.1H580.28v5.83H586V80.84h-5.67v5.83H601V80.84h-8.47v-22a5.65,5.65,0,0,1,1.32-3.22A4.44,4.44,0,0,1,597.61,54h8.78V47.82h-8A9.5,9.5,0,0,0,592.17,49.92Z"/><rect class="cls-1" x="620.15" y="32.28" width="7.38" height="6.99"/><polygon class="cls-1" points="627.14 47.82 615.33 47.82 615.33 53.65 620.54 53.65 620.54 86.67 638.64 86.67 638.64 80.84 627.14 80.84 627.14 47.82"/><path class="cls-1" d="M663.67,47.82H660q-6.68,0-9.55,2.87t-2.88,9.56v14q0,6.6,3.19,9.52t10,2.91h11.58V80.84H660a6.36,6.36,0,0,1-4.35-1.32,4.75,4.75,0,0,1-1.47-3.73V70h20.67V59.86q0-5.89-2.84-9C670.13,48.84,667.34,47.82,663.67,47.82Zm4.74,16.32H654.19V58.7a5.55,5.55,0,0,1,1.12-3.77c.75-.86,2.06-1.28,3.93-1.28h4.5a4.52,4.52,0,0,1,4.67,4.66Z"/><path class="cls-1" d="M698.33,80.84a3.19,3.19,0,0,1-2.1-.54,2.25,2.25,0,0,1-.62-1.79V32.28H683.8v5.83H689V78.9c0,2.7.66,4.66,2,5.91a6.56,6.56,0,0,0,4.63,1.86h13V80.84Z"/><polygon class="cls-1" points="196.07 81.31 186.98 47.82 186.2 47.82 179.83 47.82 179.28 47.82 170.43 81.31 161.33 47.82 154.19 47.82 165.45 86.67 175.01 86.67 183.03 58.84 191.1 86.67 200.65 86.67 211.84 47.82 204.93 47.82 196.07 81.31"/><rect class="cls-1" x="223.27" y="32.28" width="7.38" height="6.99"/><polygon class="cls-1" points="230.26 47.82 218.45 47.82 218.45 53.65 223.66 53.65 223.66 86.67 241.76 86.67 241.76 80.84 230.26 80.84 230.26 47.82"/><path class="cls-1" d="M260.8,80.3a2.28,2.28,0,0,1-.62-1.79V32.28H248.37v5.83h5.21V78.9c0,2.7.66,4.66,2,5.91a6.54,6.54,0,0,0,4.62,1.86h13.06V80.84H262.9A3.23,3.23,0,0,1,260.8,80.3Z"/><path class="cls-1" d="M292.28,80.3a2.25,2.25,0,0,1-.63-1.79V32.28H279.84v5.83h5.21V78.9c0,2.7.66,4.66,2,5.91a6.54,6.54,0,0,0,4.62,1.86h13.06V80.84H294.37A3.18,3.18,0,0,1,292.28,80.3Z"/><rect class="cls-1" x="316.13" y="32.28" width="7.38" height="6.99"/><polygon class="cls-1" points="323.13 47.82 311.32 47.82 311.32 53.65 316.52 53.65 316.52 86.67 334.63 86.67 334.63 80.84 323.13 80.84 323.13 47.82"/><path class="cls-1" d="M368.82,78.9V60.25q0-6.53-3.22-9.48t-10-3H344.35v5.83h12A6.32,6.32,0,0,1,360.74,55a4.72,4.72,0,0,1,1.48,3.73v3.88h-9.64q-11.34,0-11.34,12v1.55c0,3.84.89,6.54,2.68,8.12s4.65,2.37,8.58,2.37h6.92a5.68,5.68,0,0,0,4.74-2.33,6.15,6.15,0,0,0,2.06,1.71,4.8,4.8,0,0,0,2.21.62h4.28V81.23a5.68,5.68,0,0,1-3-.58A2,2,0,0,1,368.82,78.9ZM362.22,77a5.66,5.66,0,0,1-.62,2.8c-.42.72-1.4,1.08-3,1.08h-6.91a4,4,0,0,1-3-.93,4,4,0,0,1-.94-3V73.07a4.53,4.53,0,0,1,4.66-4.66h9.72Z"/><path class="cls-1" d="M417.11,47.82h-3.55c-4,0-7.07.92-9.12,2.75q-3.06-2.74-9.12-2.75h-3.57a9.9,9.9,0,0,0-6.22,1.86V47.82h-6.21V86.67h6.6V57.92A4.24,4.24,0,0,1,387.16,55,4.91,4.91,0,0,1,391,53.65h5.13a4.69,4.69,0,0,1,5,5.05v.84c0,.24,0,.47,0,.71V86.67h6.63V60.25c0-.24,0-.47,0-.71V58.7a4.68,4.68,0,0,1,5.05-5.05h5.1a4.69,4.69,0,0,1,5.05,5.05v28h6.61V60.25q0-6.53-3.07-9.48T417.11,47.82Z"/><path class="cls-1" d="M492.39,47.82H476.07q-6.76,0-10,3t-3.22,9.48v1.94A16.12,16.12,0,0,0,464.1,69a8.72,8.72,0,0,0,3.81,4V83.8h13.44a7,7,0,0,1,4.2,1,3.36,3.36,0,0,1,1.4,2.83v2.49a3.41,3.41,0,0,1-1.4,2.8,6.8,6.8,0,0,1-4.2,1.08H464.41v5.83h16.17q6.68,0,9.82-2.6t3.15-7.89v-.93q0-5.28-3.15-7.89T480.58,78h-6.07V74.63h6.22a11.24,11.24,0,0,0,8.47-3.3q3.18-3.31,3.19-9.14V47.82H499V41.21h-6.6ZM485.78,64a6.06,6.06,0,0,1-1.4,3.27,4.41,4.41,0,0,1-3.65,1.55h-5.44a6.32,6.32,0,0,1-4.35-1.32,4.74,4.74,0,0,1-1.48-3.73v-5A4.72,4.72,0,0,1,470.94,55a6.32,6.32,0,0,1,4.35-1.32h10.49Z"/></g></g></svg>